<svg xmlns="http://www.w3.org/2000/svg" xmlns:xlink="http://www.w3.org/1999/xlink" width="150" zoomAndPan="magnify" viewBox="0 0 112.5 112.499997" height="150" preserveAspectRatio="xMidYMid meet" version="1.0"><defs><clipPath id="cdf4c3137b"><path d="M 10 10 L 102.832031 10 L 102.832031 102.832031 L 10 102.832031 Z M 10 10 " clip-rule="nonzero"/></clipPath></defs><g clip-path="url(#cdf4c3137b)"><path fill="#3d8ab6" d="M 100.164062 90.605469 C 102.800781 93.246094 102.800781 97.527344 100.164062 100.164062 C 97.527344 102.800781 93.246094 102.800781 90.605469 100.164062 L 56.308594 65.863281 L 22.007812 100.164062 C 19.371094 102.800781 15.085938 102.800781 12.449219 100.164062 C 9.8125 97.527344 9.8125 93.246094 12.449219 90.605469 L 46.75 56.308594 L 12.449219 22.007812 C 9.8125 19.371094 9.8125 15.085938 12.449219 12.449219 C 15.085938 9.8125 19.371094 9.8125 22.007812 12.449219 L 56.308594 46.75 L 90.605469 12.449219 C 93.246094 9.8125 97.527344 9.8125 100.164062 12.449219 C 102.800781 15.085938 102.800781 19.371094 100.164062 22.007812 L 65.863281 56.308594 Z M 100.164062 90.605469 " fill-opacity="1" fill-rule="nonzero"/></g></svg>