<svg xmlns="http://www.w3.org/2000/svg" xmlns:xlink="http://www.w3.org/1999/xlink" width="150" zoomAndPan="magnify" viewBox="0 0 112.5 112.499997" height="150" preserveAspectRatio="xMidYMid meet" version="1.0"><defs><g/><clipPath id="f5e353719c"><path d="M 7.078125 8.6875 L 105.328125 8.6875 L 105.328125 103.9375 L 7.078125 103.9375 Z M 7.078125 8.6875 " clip-rule="nonzero"/></clipPath><clipPath id="39ca1befcf"><path d="M 6.328125 8.6875 L 104.578125 8.6875 L 104.578125 103.9375 L 6.328125 103.9375 Z M 6.328125 8.6875 " clip-rule="nonzero"/></clipPath><clipPath id="f1710302b2"><path d="M 7.078125 7.628906 L 105.328125 7.628906 L 105.328125 102.878906 L 7.078125 102.878906 Z M 7.078125 7.628906 " clip-rule="nonzero"/></clipPath></defs><g clip-path="url(#f5e353719c)"><path fill="#3d8ab5" d="M 30.265625 103.851562 C 30.007812 103.851562 29.75 103.789062 29.515625 103.660156 C 29.023438 103.386719 28.71875 102.867188 28.71875 102.304688 L 28.71875 85.804688 L 21.144531 85.804688 C 13.386719 85.804688 7.078125 79.480469 7.078125 71.707031 L 7.078125 22.871094 C 7.078125 15.097656 13.386719 8.773438 21.144531 8.773438 L 91.257812 8.773438 C 99.015625 8.773438 105.324219 15.097656 105.324219 22.871094 L 105.324219 71.707031 C 105.324219 79.480469 99.015625 85.804688 91.257812 85.804688 L 59.324219 85.804688 C 49.910156 91.742188 40.5 97.679688 31.085938 103.617188 C 30.835938 103.773438 30.550781 103.851562 30.265625 103.851562 Z M 21.144531 11.871094 C 15.09375 11.871094 10.167969 16.804688 10.167969 22.871094 L 10.167969 71.707031 C 10.167969 77.773438 15.09375 82.710938 21.144531 82.710938 L 30.265625 82.710938 C 31.117188 82.710938 31.808594 83.402344 31.808594 84.257812 L 31.808594 99.5 C 40.558594 93.984375 49.304688 88.464844 58.054688 82.945312 C 58.300781 82.792969 58.585938 82.710938 58.878906 82.710938 L 91.257812 82.710938 C 97.3125 82.710938 102.234375 77.773438 102.234375 71.707031 L 102.234375 22.871094 C 102.234375 16.804688 97.3125 11.871094 91.257812 11.871094 Z M 21.144531 11.871094 " fill-opacity="1" fill-rule="nonzero"/><path fill="#3d8ab5" d="M 30.265625 103.851562 C 30.007812 103.851562 29.75 103.789062 29.515625 103.660156 C 29.023438 103.386719 28.71875 102.867188 28.71875 102.304688 L 28.71875 85.804688 L 21.144531 85.804688 C 13.386719 85.804688 7.078125 79.480469 7.078125 71.707031 L 7.078125 22.871094 C 7.078125 15.097656 13.386719 8.773438 21.144531 8.773438 L 91.257812 8.773438 C 99.015625 8.773438 105.324219 15.097656 105.324219 22.871094 L 105.324219 71.707031 C 105.324219 79.480469 99.015625 85.804688 91.257812 85.804688 L 59.324219 85.804688 C 49.910156 91.742188 40.5 97.679688 31.085938 103.617188 C 30.835938 103.773438 30.550781 103.851562 30.265625 103.851562 Z M 21.144531 11.871094 C 15.09375 11.871094 10.167969 16.804688 10.167969 22.871094 L 10.167969 71.707031 C 10.167969 77.773438 15.09375 82.710938 21.144531 82.710938 L 30.265625 82.710938 C 31.117188 82.710938 31.808594 83.402344 31.808594 84.257812 L 31.808594 99.5 C 40.558594 93.984375 49.304688 88.464844 58.054688 82.945312 C 58.300781 82.792969 58.585938 82.710938 58.878906 82.710938 L 91.257812 82.710938 C 97.3125 82.710938 102.234375 77.773438 102.234375 71.707031 L 102.234375 22.871094 C 102.234375 16.804688 97.3125 11.871094 91.257812 11.871094 Z M 21.144531 11.871094 " fill-opacity="1" fill-rule="nonzero"/><path fill="#3d8ab5" d="M 30.265625 103.851562 C 30.007812 103.851562 29.75 103.789062 29.515625 103.660156 C 29.023438 103.386719 28.71875 102.867188 28.71875 102.304688 L 28.71875 85.804688 L 21.144531 85.804688 C 13.386719 85.804688 7.078125 79.480469 7.078125 71.707031 L 7.078125 22.871094 C 7.078125 15.097656 13.386719 8.773438 21.144531 8.773438 L 91.257812 8.773438 C 99.015625 8.773438 105.324219 15.097656 105.324219 22.871094 L 105.324219 71.707031 C 105.324219 79.480469 99.015625 85.804688 91.257812 85.804688 L 59.324219 85.804688 C 49.910156 91.742188 40.5 97.679688 31.085938 103.617188 C 30.835938 103.773438 30.550781 103.851562 30.265625 103.851562 Z M 21.144531 11.871094 C 15.09375 11.871094 10.167969 16.804688 10.167969 22.871094 L 10.167969 71.707031 C 10.167969 77.773438 15.09375 82.710938 21.144531 82.710938 L 30.265625 82.710938 C 31.117188 82.710938 31.808594 83.402344 31.808594 84.257812 L 31.808594 99.5 C 40.558594 93.984375 49.304688 88.464844 58.054688 82.945312 C 58.300781 82.792969 58.585938 82.710938 58.878906 82.710938 L 91.257812 82.710938 C 97.3125 82.710938 102.234375 77.773438 102.234375 71.707031 L 102.234375 22.871094 C 102.234375 16.804688 97.3125 11.871094 91.257812 11.871094 Z M 21.144531 11.871094 " fill-opacity="1" fill-rule="nonzero"/></g><g clip-path="url(#39ca1befcf)"><path fill="#3d8ab5" d="M 29.515625 103.851562 C 29.257812 103.851562 29 103.789062 28.765625 103.660156 C 28.273438 103.386719 27.96875 102.867188 27.96875 102.304688 L 27.96875 85.804688 L 20.394531 85.804688 C 12.636719 85.804688 6.328125 79.480469 6.328125 71.707031 L 6.328125 22.871094 C 6.328125 15.097656 12.636719 8.773438 20.394531 8.773438 L 90.507812 8.773438 C 98.265625 8.773438 104.574219 15.097656 104.574219 22.871094 L 104.574219 71.707031 C 104.574219 79.480469 98.265625 85.804688 90.507812 85.804688 L 58.574219 85.804688 C 49.160156 91.742188 39.75 97.679688 30.335938 103.617188 C 30.085938 103.773438 29.800781 103.851562 29.515625 103.851562 Z M 20.394531 11.871094 C 14.34375 11.871094 9.417969 16.804688 9.417969 22.871094 L 9.417969 71.707031 C 9.417969 77.773438 14.34375 82.710938 20.394531 82.710938 L 29.515625 82.710938 C 30.367188 82.710938 31.058594 83.402344 31.058594 84.257812 L 31.058594 99.5 C 39.808594 93.984375 48.554688 88.464844 57.304688 82.945312 C 57.550781 82.792969 57.835938 82.710938 58.128906 82.710938 L 90.507812 82.710938 C 96.5625 82.710938 101.484375 77.773438 101.484375 71.707031 L 101.484375 22.871094 C 101.484375 16.804688 96.5625 11.871094 90.507812 11.871094 Z M 20.394531 11.871094 " fill-opacity="1" fill-rule="nonzero"/></g><g clip-path="url(#f1710302b2)"><path fill="#3d8ab5" d="M 30.265625 102.792969 C 30.007812 102.792969 29.75 102.726562 29.515625 102.597656 C 29.023438 102.328125 28.71875 101.808594 28.71875 101.242188 L 28.71875 84.746094 L 21.144531 84.746094 C 13.386719 84.746094 7.078125 78.421875 7.078125 70.648438 L 7.078125 21.808594 C 7.078125 14.035156 13.386719 7.710938 21.144531 7.710938 L 91.257812 7.710938 C 99.015625 7.710938 105.324219 14.035156 105.324219 21.808594 L 105.324219 70.648438 C 105.324219 78.421875 99.015625 84.746094 91.257812 84.746094 L 59.324219 84.746094 C 49.910156 90.683594 40.5 96.617188 31.085938 102.554688 C 30.835938 102.710938 30.550781 102.792969 30.265625 102.792969 Z M 21.144531 10.808594 C 15.09375 10.808594 10.167969 15.742188 10.167969 21.808594 L 10.167969 70.648438 C 10.167969 76.714844 15.09375 81.648438 21.144531 81.648438 L 30.265625 81.648438 C 31.117188 81.648438 31.808594 82.339844 31.808594 83.195312 L 31.808594 98.441406 C 40.558594 92.921875 49.304688 87.40625 58.054688 81.886719 C 58.300781 81.730469 58.585938 81.648438 58.878906 81.648438 L 91.257812 81.648438 C 97.3125 81.648438 102.234375 76.714844 102.234375 70.648438 L 102.234375 21.808594 C 102.234375 15.742188 97.3125 10.808594 91.257812 10.808594 Z M 21.144531 10.808594 " fill-opacity="1" fill-rule="nonzero"/></g><g fill="#3d8ab5" fill-opacity="1"><g transform="translate(48.679146, 70.945786)"><g><path d="M 3.8125 -0.859375 C 3.007812 -1.691406 2.609375 -2.6875 2.609375 -3.84375 C 2.609375 -5 3.007812 -5.988281 3.8125 -6.8125 C 4.613281 -7.632812 5.613281 -8.046875 6.8125 -8.046875 C 7.96875 -8.046875 8.957031 -7.632812 9.78125 -6.8125 C 10.613281 -5.988281 11.03125 -5 11.03125 -3.84375 C 11.03125 -2.726562 10.613281 -1.742188 9.78125 -0.890625 C 8.957031 -0.046875 7.96875 0.375 6.8125 0.375 C 5.613281 0.375 4.613281 -0.0351562 3.8125 -0.859375 Z M 2.90625 -42.125 C 2.90625 -43.195312 3.265625 -44.03125 3.984375 -44.625 C 4.710938 -45.226562 5.632812 -45.53125 6.75 -45.53125 C 7.863281 -45.53125 8.789062 -45.21875 9.53125 -44.59375 C 10.28125 -43.976562 10.65625 -43.15625 10.65625 -42.125 C 10.65625 -39.40625 10.507812 -34.863281 10.21875 -28.5 C 9.925781 -22.132812 9.78125 -17.59375 9.78125 -14.875 C 9.78125 -14.125 9.460938 -13.539062 8.828125 -13.125 C 8.191406 -12.71875 7.5 -12.515625 6.75 -12.515625 C 4.726562 -12.515625 3.71875 -13.300781 3.71875 -14.875 C 3.71875 -17.59375 3.582031 -22.132812 3.3125 -28.5 C 3.039062 -34.863281 2.90625 -39.40625 2.90625 -42.125 Z M 2.90625 -42.125 "/></g></g></g></svg>